<?xml version="1.0" standalone="no"?>
<!DOCTYPE svg PUBLIC "-//W3C//DTD SVG 20010904//EN"
 "http://www.w3.org/TR/2001/REC-SVG-20010904/DTD/svg10.dtd">
<svg version="1.0" xmlns="http://www.w3.org/2000/svg"
 width="700.000000pt" height="700.000000pt" viewBox="0 0 700.000000 700.000000"
 preserveAspectRatio="xMidYMid meet">
<metadata>
Created by potrace 1.11, written by Peter Selinger 2001-2013
</metadata>
<g transform="translate(0.000000,700.000000) scale(0.100000,-0.100000)"
fill="#000000" stroke="none">
<path d="M2398 6258 c-117 -15 -173 -63 -185 -158 -7 -54 11 -69 87 -71 71 -3
152 -18 216 -42 66 -24 165 -77 160 -85 -2 -4 -19 -9 -38 -10 -62 -5 -227 -42
-325 -74 -115 -36 -375 -158 -403 -188 -3 -3 -34 -26 -70 -51 -89 -61 -110
-80 -215 -184 -116 -115 -134 -137 -222 -267 -124 -183 -219 -408 -260 -617
l-18 -91 -65 -21 c-130 -41 -231 -100 -323 -188 -130 -123 -206 -285 -173
-366 37 -87 252 -194 517 -255 125 -29 137 -35 145 -67 8 -29 110 -235 147
-294 39 -63 99 -142 161 -214 102 -116 126 -138 316 -289 9 -7 22 -15 30 -19
8 -4 35 -21 60 -37 99 -65 303 -155 448 -196 41 -12 62 -23 63 -33 0 -9 13
-54 30 -101 16 -47 31 -93 34 -103 5 -22 94 -205 127 -262 43 -76 187 -260
258 -333 148 -149 317 -268 508 -359 l114 -54 -6 -57 c-3 -31 -9 -95 -12 -142
-3 -47 -8 -87 -11 -90 -2 -3 -96 -5 -208 -6 l-203 -1 -44 -28 c-100 -63 -119
-195 -40 -278 48 -51 75 -59 209 -61 67 0 123 -2 123 -3 0 -1 -12 -9 -27 -17
-89 -46 -125 -143 -88 -233 20 -48 41 -71 87 -94 47 -24 102 -26 148 -7 55 23
523 279 544 297 32 28 56 88 56 139 0 54 -36 121 -76 143 -35 18 -106 121
-136 197 -33 82 -49 180 -27 166 44 -27 424 -42 584 -23 96 12 147 19 165 24
8 2 31 6 50 9 19 3 71 14 114 26 44 11 81 20 83 20 3 0 1 -26 -3 -58 -10 -75
-12 -106 -13 -167 l-1 -51 -182 1 c-200 1 -247 -5 -294 -37 -109 -74 -94 -252
25 -310 37 -18 63 -21 163 -22 65 -1 118 -2 118 -3 0 -1 -17 -11 -37 -23 -109
-61 -124 -215 -30 -296 49 -41 107 -55 162 -39 40 11 502 258 558 297 44 32
70 92 65 154 -5 57 -37 115 -74 135 -27 14 -85 89 -119 155 -37 73 -55 148
-55 240 0 134 -1 133 97 183 111 57 256 155 363 245 116 97 111 93 150 100
112 17 320 120 435 213 109 89 244 249 327 388 126 209 234 504 279 755 19
109 24 167 24 285 0 136 -15 212 -51 251 -32 33 -40 32 -296 -52 -271 -88
-399 -114 -578 -119 -481 -12 -865 270 -1152 847 -32 65 -58 120 -58 122 0 3
-11 29 -24 58 -13 29 -38 94 -56 143 -101 282 -145 378 -242 522 -239 357
-597 613 -1003 718 -140 36 -134 33 -100 56 29 19 149 79 159 79 3 0 17 5 33
12 15 6 33 12 38 14 62 15 100 21 155 23 87 3 103 21 87 102 -7 35 -52 86 -92
106 -76 38 -254 28 -394 -22 -53 -19 -176 -80 -214 -107 l-28 -20 -38 25 c-45
30 -168 88 -236 112 -74 25 -211 42 -277 33z"/>
</g>
</svg>
